<!DOCTYPE svg PUBLIC "-//W3C//DTD SVG 20010904//EN" "http://www.w3.org/TR/2001/REC-SVG-20010904/DTD/svg10.dtd">
<svg version="1.0" xmlns="http://www.w3.org/2000/svg" width="474px" height="130px" viewBox="0 0 4740 4080" preserveAspectRatio="xMidYMid meet">
<g id="layer101" fill="#f4f4f4" stroke="none">
 <path d="M3742 3717 c-30 -32 -29 -80 2 -104 18 -15 23 -26 19 -46 -3 -15 0 -34 7 -42 9 -11 8 -20 -9 -44 -40 -56 -19 -127 46 -152 27 -10 162 -12 187 -3 23 9 20 44 -3 44 -16 0 -18 5 -14 39 9 66 -49 121 -128 121 -19 0 -29 5 -29 15 0 12 14 15 68 15 81 0 110 18 119 72 5 33 2 41 -30 73 -35 35 -35 35 -124 35 -81 0 -92 -2 -111 -23z m181 -39 c21 -11 22 -44 1 -52 -28 -11 -109 -6 -126 8 -59 45 50 84 125 44z m-23 -233 c15 -40 -3 -75 -40 -75 -39 0 -59 36 -42 75 9 19 19 25 42 25 23 0 33 -6 40 -25z"/>
 <path d="M660 3708 c1 -7 7 -24 14 -37 11 -21 9 -34 -24 -120 -56 -145 -56 -141 -27 -141 22 0 28 9 53 80 16 44 31 80 34 80 3 0 18 -36 33 -80 25 -70 31 -80 53 -80 l24 0 -36 98 c-20 53 -45 123 -57 155 -17 47 -25 57 -44 57 -13 0 -23 -6 -23 -12z"/>
 <path d="M1470 3661 c0 -5 -23 -57 -50 -114 l-50 -105 -85 -12 c-47 -7 -92 -10 -100 -6 -10 4 -15 -1 -15 -14 0 -13 9 -22 28 -26 32 -7 132 -31 182 -44 19 -5 67 -16 105 -25 39 -8 87 -20 108 -25 20 -6 55 -14 77 -20 67 -17 123 -32 154 -41 21 -7 34 -6 42 3 13 13 46 152 48 198 l1 25 -111 3 -111 3 -89 89 c-48 49 -92 96 -97 105 -9 16 -37 21 -37 6z m180 -203 c0 -5 -34 -8 -75 -8 l-75 0 0 82 0 82 75 -74 c41 -41 75 -78 75 -82z m-125 -57 c60 -30 43 -41 -19 -12 -24 11 -56 23 -70 27 -14 3 -29 10 -31 15 -3 4 9 39 27 78 l33 70 5 -76 5 -77 50 -25z m355 2 c-1 -42 -26 -127 -38 -131 -6 -2 -55 20 -109 49 -54 29 -118 63 -143 75 l-45 23 110 3 c61 2 136 5 168 6 56 2 57 2 57 -25z m-431 -20 c43 -17 67 -27 101 -41 14 -6 32 -13 40 -15 13 -5 13 -6 0 -6 -8 -1 -85 17 -170 38 -126 31 -148 40 -120 44 46 6 104 -2 149 -20z"/>
 <path d="M370 3469 l0 -170 23 3 c19 3 23 10 27 65 4 52 7 61 20 53 23 -15 73 -12 97 5 50 35 54 145 8 191 -27 27 -91 33 -114 12 -11 -10 -14 -10 -18 0 -3 6 -13 12 -24 12 -18 0 -19 -9 -19 -171z m144 109 c48 -68 -17 -164 -76 -111 -25 22 -25 100 0 119 26 20 59 17 76 -8z"/>
 <path d="M2512 3623 c-22 -3 -47 -18 -73 -44 -37 -37 -39 -42 -39 -103 0 -97 48 -155 128 -156 49 0 99 25 116 59 19 37 21 111 4 112 -7 0 -49 1 -93 2 -74 2 -80 4 -77 22 8 41 22 48 99 43 70 -5 73 -4 73 17 0 13 -6 27 -12 32 -16 13 -82 21 -126 16z m78 -198 c0 -20 -36 -55 -57 -55 -23 0 -53 29 -53 52 0 15 8 18 55 18 42 0 55 -3 55 -15z"/>
 <path d="M2768 3623 c-53 -8 -85 -82 -58 -134 15 -27 63 -49 109 -49 47 0 55 -9 41 -45 -9 -23 -14 -26 -38 -21 -82 21 -84 21 -80 -10 3 -25 9 -30 47 -37 66 -13 109 -2 131 36 17 27 20 51 20 145 l0 112 -25 0 c-14 0 -28 -7 -32 -15 -5 -14 -8 -14 -22 -2 -19 17 -56 25 -93 20z m89 -85 c14 -28 8 -59 -10 -53 -7 2 -24 6 -39 9 -23 5 -28 12 -28 35 0 35 8 43 40 39 15 -2 30 -13 37 -30z"/>
 <path d="M3395 3624 c-11 -3 -30 -7 -42 -10 -19 -3 -23 -11 -23 -40 0 -33 2 -36 23 -29 12 5 48 9 81 9 46 1 61 -3 70 -16 16 -26 -2 -48 -69 -84 -70 -37 -105 -75 -105 -114 0 -71 49 -110 138 -110 71 0 104 14 100 43 -3 20 -9 22 -63 23 -98 1 -97 0 -93 37 3 28 10 35 65 63 79 39 91 50 101 88 9 32 -2 82 -23 102 -27 28 -113 48 -160 38z"/>
 <path d="M4466 3623 c-48 -12 -66 -55 -66 -157 0 -70 -3 -86 -15 -86 -24 0 -17 -36 10 -54 14 -9 25 -25 25 -36 0 -20 37 -38 50 -23 5 4 10 19 12 33 2 19 8 24 26 22 19 -3 22 1 22 27 0 26 -4 31 -25 31 -25 0 -25 1 -25 90 0 89 0 90 25 90 21 0 25 5 25 30 0 17 -4 30 -9 30 -5 0 -15 2 -23 4 -7 2 -22 1 -32 -1z"/>
 <path d="M2134 3607 c-2 -7 -3 -94 -2 -192 l3 -180 35 0 35 0 3 163 2 162 80 0 80 0 0 30 0 30 -115 0 c-85 0 -117 -3 -121 -13z"/>
 <path d="M3010 3476 c0 -90 4 -147 10 -151 6 -4 22 0 35 9 21 14 26 14 55 -1 20 -10 46 -14 71 -10 72 10 89 46 89 193 l0 104 -34 0 -34 0 -4 -110 c-2 -85 -7 -113 -18 -120 -25 -16 -59 -11 -80 10 -17 17 -20 33 -20 120 l0 100 -35 0 -35 0 0 -144z"/>
 <path d="M3637 3614 c-4 -4 -7 -70 -7 -146 0 -119 2 -140 16 -145 9 -3 24 -2 33 4 13 9 16 32 16 149 l0 139 -25 3 c-14 2 -29 0 -33 -4z"/>
 <path d="M4060 3416 l0 -206 35 0 c29 0 36 4 41 26 4 14 4 45 2 68 l-5 43 29 -15 c39 -19 103 -10 134 19 23 21 24 29 24 146 l0 124 -32 -3 -33 -3 -5 -108 c-5 -113 -11 -127 -56 -127 -45 0 -53 18 -56 130 l-3 105 -37 3 -38 3 0 -205z"/>
 <path d="M3643 3284 c-18 -8 -16 -49 3 -65 23 -19 49 1 49 37 0 29 -22 40 -52 28z"/>
 <path d="M2650 2900 c-135 -33 -265 -102 -370 -197 -58 -52 -65 -83 -25 -109 31 -21 45 -15 129 56 257 215 620 222 843 17 63 -59 90 -68 117 -41 30 30 19 59 -47 120 -76 72 -179 128 -283 154 -101 26 -259 26 -364 0z"/>
 <path d="M1426 2848 c-12 -19 -13 -48 -6 -163 26 -410 31 -501 45 -740 22 -377 22 -386 41 -406 22 -24 46 -24 68 0 10 11 115 266 233 567 227 580 228 582 174 599 -43 13 -57 -10 -155 -257 -52 -134 -103 -265 -113 -291 l-18 -48 -65 7 c-36 3 -66 7 -67 8 0 0 -11 161 -23 356 -17 290 -24 358 -37 372 -22 25 -60 23 -77 -4z m224 -845 c-1 -5 -16 -46 -34 -92 l-33 -85 -6 55 c-4 30 -7 71 -7 92 0 37 0 37 40 37 22 0 40 -3 40 -7z"/>
 <path d="M3725 2509 c-115 -5 -286 -12 -379 -17 l-169 -8 -24 -28 -25 -29 7 -401 c4 -221 12 -409 17 -418 14 -27 55 -34 79 -12 20 18 20 25 13 400 l-7 382 94 6 c52 3 234 11 404 17 231 9 316 15 333 26 26 16 29 54 6 77 -17 18 -17 18 -349 5z"/>
 <path d="M2193 2424 c-147 -54 -234 -245 -199 -440 18 -102 52 -169 114 -226 53 -47 105 -68 169 -68 46 0 63 14 63 51 0 33 -14 45 -66 53 -87 15 -153 87 -175 195 -35 172 45 329 173 338 66 5 106 -17 142 -80 24 -41 64 -172 55 -182 -2 -2 -49 3 -103 10 -109 15 -132 11 -142 -31 -12 -47 14 -60 161 -79 125 -17 135 -17 159 -2 35 23 41 57 28 142 -23 145 -82 250 -168 301 -56 33 -149 41 -211 18z"/>
 <path d="M2722 2354 c-22 -15 -22 -18 -22 -273 0 -243 1 -259 20 -276 26 -24 68 -13 81 22 6 16 9 123 7 271 -3 228 -4 245 -22 258 -25 18 -36 18 -64 -2z"/>
 <path d="M1772 1734 c-14 -9 -22 -26 -22 -43 0 -23 21 -48 120 -140 66 -61 126 -111 133 -111 24 0 57 31 57 53 0 21 -115 143 -213 225 -43 37 -45 37 -75 16z"/>
 <path d="M2727 1712 c-32 -35 -11 -92 33 -92 45 0 66 62 32 93 -24 22 -45 21 -65 -1z"/>
 <path d="M356 1534 c-9 -8 -16 -25 -16 -37 0 -36 291 -1160 306 -1184 17 -27 55 -30 76 -5 8 9 22 44 31 77 8 33 68 255 132 494 64 239 115 446 113 460 -4 31 -49 52 -76 35 -14 -9 -83 -235 -135 -446 l-7 -27 -88 6 c-48 3 -90 8 -94 12 -4 3 -41 141 -83 306 -49 192 -82 304 -93 313 -22 16 -47 15 -66 -4z m394 -738 c0 -8 -59 -229 -62 -232 -2 -1 -17 51 -34 117 l-30 119 63 0 c35 0 63 -2 63 -4z"/>
 <path d="M3660 1505 c-19 -23 -4 -781 16 -812 17 -26 65 -31 83 -9 20 24 1 797 -20 822 -15 18 -63 18 -79 -1z"/>
 <path d="M4336 1474 c-9 -8 -16 -17 -16 -20 0 -9 -130 -587 -132 -589 -2 -2 -24 -7 -49 -12 l-46 -10 -63 270 c-35 148 -70 276 -78 283 -29 30 -84 5 -84 -37 0 -35 223 -981 235 -996 13 -18 62 -16 77 2 13 16 240 1023 240 1067 0 16 -9 33 -22 42 -28 20 -43 20 -62 0z m-181 -773 c-7 -41 -25 -57 -25 -23 0 9 -3 27 -6 39 -4 15 -1 22 13 25 25 6 26 4 18 -41z"/>
 <path d="M2780 1389 c-61 -11 -148 -48 -196 -84 -18 -13 -44 -48 -58 -77 -51 -103 -25 -201 82 -299 l60 -57 -33 -32 c-85 -83 -87 -187 -4 -269 66 -67 208 -111 242 -76 36 35 6 95 -48 95 -32 0 -122 46 -134 69 -30 54 1 111 81 152 42 21 62 51 53 78 -3 10 -41 41 -85 70 -92 60 -130 112 -130 179 0 73 79 129 210 148 53 8 80 28 80 60 0 22 -34 55 -55 53 -5 -1 -35 -5 -65 -10z"/>
 <path d="M1524 1337 c-24 -22 -24 -23 -14 -107 5 -47 26 -242 45 -435 19 -192 37 -360 40 -372 10 -45 73 -54 95 -13 19 35 300 821 300 839 0 40 -63 57 -92 24 -8 -10 -36 -79 -63 -153 -26 -74 -56 -158 -67 -187 l-19 -51 -42 5 c-23 3 -45 8 -49 12 -4 3 -17 98 -28 210 -12 113 -25 212 -30 222 -15 27 -48 30 -76 6z m180 -579 c-3 -13 -12 -36 -19 -53 -12 -30 -12 -30 -16 23 -4 49 -3 52 19 52 20 0 22 -4 16 -22z"/>
 <path d="M2086 1171 c-15 -16 -15 -35 -7 -202 6 -101 13 -254 16 -339 8 -185 16 -205 75 -197 53 7 138 47 183 86 50 44 97 144 104 217 12 143 -91 309 -263 423 -54 35 -84 39 -108 12z m176 -215 c60 -71 79 -111 85 -176 5 -51 2 -67 -22 -115 -33 -68 -105 -128 -116 -98 -4 10 -10 110 -13 223 -4 113 -10 213 -13 223 -5 17 -3 18 19 3 12 -8 40 -35 60 -60z"/>
 <path d="M1260 1154 c-140 -38 -220 -150 -207 -292 9 -105 83 -209 182 -258 61 -29 92 -26 101 11 10 40 0 59 -41 78 -86 40 -135 112 -135 200 0 94 51 145 170 167 59 11 70 21 70 62 0 48 -43 58 -140 32z"/>
 <path d="M2976 1144 c-9 -8 -16 -26 -16 -40 0 -50 93 -540 106 -561 16 -26 55 -30 76 -10 7 8 33 82 57 165 24 84 46 150 49 147 3 -3 37 -62 77 -132 66 -117 74 -128 103 -131 50 -5 57 18 81 268 27 282 27 276 -4 296 -23 15 -27 15 -49 1 -27 -18 -30 -31 -47 -212 -6 -66 -12 -121 -14 -123 -1 -2 -28 46 -60 105 -69 131 -71 133 -105 133 -37 0 -43 -10 -75 -120 -15 -52 -30 -98 -34 -102 -3 -4 -19 64 -35 150 -15 86 -33 163 -38 170 -14 17 -53 15 -72 -4z"/>
 <path d="M3675 526 c-30 -46 17 -102 65 -76 29 15 36 56 15 80 -25 27 -61 25 -80 -4z"/>
 </g>

</svg>